<svg width="150" height="34" viewBox="0 0 150 34" fill="none" xmlns="http://www.w3.org/2000/svg">
<path d="M34.7454 11.5745L32.915 9.72458L36.9819 5.7268L33.0388 1.85002L34.8668 6.10352e-05L40.6916 5.7268L34.7454 11.5745Z" fill="#E60012"/>
<path d="M67.699 15.3831C66.6825 14.7232 65.474 14.3385 64.1695 14.3385C60.5932 14.3385 57.6914 17.2252 57.6914 20.7881C57.6914 24.3511 60.5909 27.2378 64.1695 27.2378C65.4717 27.2378 66.6825 26.8507 67.699 26.1932V28.04C67.699 29.5719 66.4483 30.8171 64.9096 30.8171H60.8415V34H64.9096C68.2096 34 70.8935 31.3278 70.8935 28.0423V14.2872H67.6966V15.3901L67.699 15.3831ZM64.1695 24.1576C62.3006 24.1576 60.7829 22.6489 60.7829 20.7858C60.7829 18.9227 62.2982 17.4141 64.1695 17.4141C66.0408 17.4141 67.5561 18.9227 67.5561 20.7858C67.5561 22.6489 66.0408 24.1576 64.1695 24.1576Z" fill="#464646"/>
<path d="M28.3935 14.4678C24.7992 14.4678 21.8828 17.3413 21.8828 20.888C21.8828 24.4347 24.7968 27.3082 28.3935 27.3082C31.9901 27.3082 34.9041 24.4347 34.9041 20.888C34.9041 17.3413 31.9901 14.4678 28.3935 14.4678ZM28.3935 24.0888C26.5999 24.0888 25.1452 22.6544 25.1452 20.8857C25.1452 19.117 26.5999 17.6825 28.3935 17.6825C30.1871 17.6825 31.6417 19.117 31.6417 20.8857C31.6417 22.6544 30.1871 24.0888 28.3935 24.0888Z" fill="#464646"/>
<path d="M113.123 13.5638C109.377 13.5638 106.341 16.6406 106.341 20.4361C106.341 24.2317 109.377 27.3085 113.123 27.3085C116.868 27.3085 119.905 24.2317 119.905 20.4361C119.905 16.6406 116.868 13.5638 113.123 13.5638ZM113.123 23.8664C111.255 23.8664 109.738 22.3315 109.738 20.4361C109.738 18.5407 111.252 17.0083 113.123 17.0083C114.993 17.0083 116.506 18.5431 116.506 20.4361C116.506 22.3292 114.991 23.8664 113.123 23.8664Z" fill="#464646"/>
<path d="M49.4632 13.9255C46.4217 13.9255 43.9473 16.4127 43.9473 19.4699V27.3085H47.6777V19.4699C47.6777 18.4807 48.4791 17.6752 49.4632 17.6752C50.4474 17.6752 51.2488 18.4807 51.2488 19.4699V27.3085H54.9792V19.4699C54.9792 16.4127 52.5047 13.9255 49.4632 13.9255Z" fill="#464646"/>
<path d="M129.919 21.7841C129.919 22.7697 129.117 23.5723 128.133 23.5723C127.149 23.5723 126.348 22.7697 126.348 21.7841V13.7444H122.617V21.7841C122.617 24.8301 125.092 27.3082 128.133 27.3082C131.175 27.3082 133.649 24.8301 133.649 21.7841V13.7444H129.919V21.7841Z" fill="#464646"/>
<path d="M41.2344 14.4678H37.4365V27.3082H41.2344V14.4678Z" fill="#464646"/>
<path d="M103.628 8.86176H99.8301V27.3086H103.628V8.86176Z" fill="#464646"/>
<path d="M146.254 8.86176V14.5304C146.254 14.5304 146.251 14.5304 146.249 14.5281C140.174 11.6984 134.268 17.6258 137.086 23.728C137.664 24.9797 138.679 26.0006 139.928 26.581C142.212 27.6462 144.473 27.4714 146.254 26.5134V27.3082H149.926V8.86409H146.254V8.86176ZM142.897 24.017C141.044 24.017 139.542 22.509 139.542 20.6489C139.542 18.7889 141.044 17.2785 142.897 17.2785C144.749 17.2785 146.254 18.7866 146.254 20.6489C146.254 22.5113 144.752 24.017 142.897 24.017Z" fill="#464646"/>
<path d="M89.3692 10.2497C91.1908 10.2497 92.9744 10.98 94.2617 12.2529L96.9359 9.60854C94.9433 7.63819 92.1859 6.51093 89.3692 6.51093C83.4698 6.51093 78.6699 11.2572 78.6699 17.0907C78.6699 22.9243 83.4698 27.6705 89.3692 27.6705C92.1859 27.6705 94.9433 26.5409 96.9359 24.5729L94.2617 21.9285C92.9744 23.2014 91.1908 23.9318 89.3692 23.9318C85.555 23.9318 82.4509 20.8623 82.4509 17.0907C82.4509 13.3191 85.555 10.2497 89.3692 10.2497Z" fill="#464646"/>
<path d="M11.3992 18.4902L15.4461 18.2529V22.1801C14.1736 23.2085 12.5571 23.7854 10.9103 23.7854C6.9476 23.7854 3.7241 20.5794 3.7241 16.6382C3.7241 12.6971 6.9476 9.49106 10.9103 9.49106C12.8028 9.49106 14.6531 10.2542 15.9912 11.585L18.6252 8.96525C16.5947 6.9458 13.7829 5.78717 10.9103 5.78717C4.89373 5.78717 0 10.6543 0 16.6382C0 22.6222 4.89373 27.4893 10.9103 27.4893C13.7829 27.4893 16.5947 26.3307 18.6252 24.3112L19.1702 23.7692V14.7863H11.3992V18.4902Z" fill="#464646"/>
<path d="M38.3602 11.5745L36.5322 9.72458L40.5968 5.7268L36.6536 1.85002L38.4816 6.10352e-05L44.3088 5.7268L38.3602 11.5745Z" fill="#464646"/>
<path d="M42.1604 11.5745L40.3301 9.72458L44.397 5.7268L40.4538 1.85002L42.2818 6.10352e-05L48.1067 5.7268L42.1604 11.5745Z" fill="#00A0E9"/>
</svg>
